<svg width="20" height="20" viewBox="0 0 20 20" fill="none" xmlns="http://www.w3.org/2000/svg">
    <path d="M2.53629 19.934C1.81442 19.7419 1.09968 19.1715 0.651348 18.4295C-0.0677827 17.2395 -0.203332 15.6192 0.304084 14.2785C0.573745 13.566 0.962854 13.0131 1.50361 12.574L1.76424 12.3624L1.68746 12.055C1.50472 11.3232 1.51226 10.5649 1.71004 9.7843C2.00844 8.60641 2.82962 7.65092 3.80679 7.34465C3.90556 7.31369 3.99891 7.27589 4.01424 7.26065C4.02955 7.24541 4.01424 7.04553 3.98181 6.81646C3.86758 6.02719 3.97411 5.20758 4.29098 4.4389C4.41601 4.13554 4.53921 3.93738 4.82731 3.57622C5.14668 3.17584 5.25568 3.07392 5.57362 2.87843C6.23157 2.47389 6.14494 2.48487 8.82651 2.46613C10.1306 2.457 11.2342 2.43928 11.279 2.42673C11.4007 2.39264 11.4661 2.18042 11.4039 2.02097C11.3535 1.89151 11.2747 1.84525 11.0106 1.7899C10.8429 1.75477 10.6167 1.52891 10.5237 1.30383C10.4442 1.11131 10.4434 0.7006 10.5222 0.511584C10.6015 0.321481 10.7772 0.115437 10.916 0.0497814C11.073 -0.0244627 11.5676 -0.0144202 11.9913 0.0716133C13.0535 0.287262 13.9915 0.910913 14.7588 1.9117C15.4455 2.80727 15.8789 3.84887 16.0632 5.0462C16.1328 5.49838 16.1567 6.61715 16.1059 7.04122L16.0761 7.28999L16.3765 7.40792C17.9129 8.01111 18.7971 10.1285 18.3169 12.055L18.2403 12.3624L18.5009 12.574C19.4497 13.3445 20.0009 14.5895 20 15.9602C20 16.7233 19.9085 17.2001 19.6374 17.8599C19.3287 18.6111 18.8435 19.2016 18.2128 19.5935C17.5167 20.0262 18.3181 19.9863 10.1002 19.9972C3.77559 20.0057 2.77433 19.9973 2.53629 19.934ZM17.3352 18.0691C17.9874 17.7565 18.4096 17.1209 18.5084 16.3027C18.6211 15.37 18.2317 14.4474 17.5474 14.0257L17.2739 13.8571H10.0022H2.7306L2.45709 14.0257C0.913602 14.9768 1.28257 17.8479 2.98699 18.1492C3.10555 18.1701 6.33295 18.1844 10.159 18.1809L17.1155 18.1745L17.3352 18.0691ZM16.8527 11.6862C16.9427 11.4449 16.9577 11.3403 16.9569 10.9626C16.9554 10.5715 16.9419 10.4835 16.8329 10.1923C16.6765 9.77427 16.4203 9.45302 16.0848 9.25403L15.8222 9.09829H10.0022H4.18233L3.91972 9.25403C3.58419 9.45302 3.32802 9.77427 3.17157 10.1923C3.06259 10.4835 3.04842 10.5715 3.04759 10.9626C3.04611 11.3403 3.06181 11.4449 3.15183 11.6862L3.25701 11.9683H10.0022H16.7475L16.8527 11.6862ZM14.6286 6.85378C14.6909 6.39167 14.6553 5.58506 14.5499 5.07535C14.3438 4.07775 13.8224 3.15023 13.1575 2.59791C12.9103 2.39258 12.8739 2.40086 12.866 2.66437C12.8645 2.71448 12.8075 2.90153 12.7395 3.08004C12.5174 3.66243 12.047 4.12456 11.5386 4.2597C11.3983 4.297 10.5903 4.31491 9.04836 4.31491C6.5357 4.31491 6.48189 4.32042 6.11496 4.61517C5.62936 5.00525 5.38306 5.62381 5.42792 6.34063C5.44859 6.67082 5.52891 7.00551 5.6217 7.14814C5.65321 7.19655 6.60091 7.20947 10.1211 7.20947H14.5805L14.6286 6.85378Z" fill="black" fill-opacity="0.6"/>
</svg>
