<svg width="24" height="24" viewBox="0 0 24 24" fill="none" xmlns="http://www.w3.org/2000/svg">
<path d="M4.53629 21.934C3.81442 21.7419 3.09968 21.1715 2.65135 20.4295C1.93222 19.2395 1.79667 17.6192 2.30408 16.2785C2.57375 15.566 2.96285 15.0131 3.50361 14.574L3.76424 14.3624L3.68746 14.055C3.50472 13.3232 3.51226 12.5649 3.71004 11.7843C4.00844 10.6064 4.82962 9.65092 5.80679 9.34465C5.90556 9.31369 5.99891 9.27589 6.01424 9.26065C6.02955 9.24541 6.01424 9.04553 5.98181 8.81646C5.86758 8.02719 5.97411 7.20758 6.29098 6.4389C6.41601 6.13554 6.53921 5.93738 6.82731 5.57622C7.14668 5.17584 7.25568 5.07392 7.57362 4.87843C8.23157 4.47389 8.14494 4.48487 10.8265 4.46613C12.1306 4.457 13.2342 4.43928 13.279 4.42673C13.4007 4.39264 13.4661 4.18042 13.4039 4.02097C13.3535 3.89151 13.2747 3.84525 13.0106 3.7899C12.8429 3.75477 12.6167 3.52891 12.5237 3.30383C12.4442 3.11131 12.4434 2.7006 12.5222 2.51158C12.6015 2.32148 12.7772 2.11544 12.916 2.04978C13.073 1.97554 13.5676 1.98558 13.9913 2.07161C15.0535 2.28726 15.9915 2.91091 16.7588 3.9117C17.4455 4.80727 17.8789 5.84887 18.0632 7.0462C18.1328 7.49838 18.1567 8.61715 18.1059 9.04122L18.0761 9.28999L18.3765 9.40792C19.9129 10.0111 20.7971 12.1285 20.3169 14.055L20.2403 14.3624L20.5009 14.574C21.4497 15.3445 22.0009 16.5895 22 17.9602C22 18.7233 21.9085 19.2001 21.6374 19.8599C21.3287 20.6111 20.8435 21.2016 20.2128 21.5935C19.5167 22.0262 20.3181 21.9863 12.1002 21.9972C5.77559 22.0057 4.77433 21.9973 4.53629 21.934ZM19.3352 20.0691C19.9874 19.7565 20.4096 19.1209 20.5084 18.3027C20.6211 17.37 20.2317 16.4474 19.5474 16.0257L19.2739 15.8571H12.0022H4.7306L4.45709 16.0257C2.9136 16.9768 3.28257 19.8479 4.98699 20.1492C5.10555 20.1701 8.33295 20.1844 12.159 20.1809L19.1155 20.1745L19.3352 20.0691ZM18.8527 13.6862C18.9427 13.4449 18.9577 13.3403 18.9569 12.9626C18.9554 12.5715 18.9419 12.4835 18.8329 12.1923C18.6765 11.7743 18.4203 11.453 18.0848 11.254L17.8222 11.0983H12.0022H6.18233L5.91972 11.254C5.58419 11.453 5.32802 11.7743 5.17157 12.1923C5.06259 12.4835 5.04842 12.5715 5.04759 12.9626C5.04611 13.3403 5.06181 13.4449 5.15183 13.6862L5.25701 13.9683H12.0022H18.7475L18.8527 13.6862ZM16.6286 8.85378C16.6909 8.39167 16.6553 7.58506 16.5499 7.07535C16.3438 6.07775 15.8224 5.15023 15.1575 4.59791C14.9103 4.39258 14.8739 4.40086 14.866 4.66437C14.8645 4.71448 14.8075 4.90153 14.7395 5.08004C14.5174 5.66243 14.047 6.12456 13.5386 6.2597C13.3983 6.297 12.5903 6.31491 11.0484 6.31491C8.5357 6.31491 8.48189 6.32042 8.11496 6.61517C7.62936 7.00525 7.38306 7.62381 7.42792 8.34063C7.44859 8.67082 7.52891 9.00551 7.6217 9.14814C7.65321 9.19655 8.60091 9.20947 12.1211 9.20947H16.5805L16.6286 8.85378Z" fill="black"/>
</svg>
